<svg width="22" height="21" viewBox="0 0 22 21" fill="none" xmlns="http://www.w3.org/2000/svg">
<path d="M1 19C0.999857 17.7062 1.31352 16.4316 1.91408 15.2857C2.51464 14.1397 3.38419 13.1565 4.44815 12.4203C5.51212 11.6842 6.73876 11.217 8.02288 11.059C9.30701 10.901 10.6103 11.0568 11.821 11.513M20.378 14.626C20.7764 14.2276 21.0001 13.6874 21.0001 13.124C21.0001 12.5606 20.7764 12.0204 20.378 11.622C19.9796 11.2236 19.4394 10.9999 18.876 10.9999C18.3126 10.9999 17.7724 11.2236 17.374 11.622L13.364 15.634C13.1262 15.8716 12.9522 16.1653 12.858 16.488L12.021 19.358C11.9959 19.444 11.9944 19.5353 12.0166 19.6221C12.0389 19.7089 12.0841 19.7882 12.1474 19.8516C12.2108 19.9149 12.2901 19.9601 12.3769 19.9824C12.4637 20.0046 12.555 20.0031 12.641 19.978L15.511 19.141C15.8337 19.0468 16.1274 18.8728 16.365 18.635L20.378 14.626ZM14 6C14 8.76142 11.7614 11 9 11C6.23858 11 4 8.76142 4 6C4 3.23858 6.23858 1 9 1C11.7614 1 14 3.23858 14 6Z" stroke="black" stroke-width="2" stroke-linecap="round" stroke-linejoin="round"/>
</svg>
