<svg width="23" height="22" viewBox="0 0 23 22" fill="none" xmlns="http://www.w3.org/2000/svg">
<path d="M1 1H3L5.66 13.42C5.75758 13.8749 6.01067 14.2815 6.37571 14.5699C6.74075 14.8582 7.19491 15.0103 7.66 15H17.44C17.8952 14.9993 18.3365 14.8433 18.691 14.5578C19.0456 14.2724 19.2921 13.8745 19.39 13.43L21.04 6H4.07M7.95 19.95C7.95 20.5023 7.50228 20.95 6.95 20.95C6.39772 20.95 5.95 20.5023 5.95 19.95C5.95 19.3977 6.39772 18.95 6.95 18.95C7.50228 18.95 7.95 19.3977 7.95 19.95ZM18.95 19.95C18.95 20.5023 18.5023 20.95 17.95 20.95C17.3977 20.95 16.95 20.5023 16.95 19.95C16.95 19.3977 17.3977 18.95 17.95 18.95C18.5023 18.95 18.95 19.3977 18.95 19.95Z" stroke="white" stroke-width="2" stroke-linecap="round" stroke-linejoin="round"/>
</svg>
