<svg width="15" height="15" viewBox="0 0 15 15" fill="none" xmlns="http://www.w3.org/2000/svg">
<path d="M0.75 7.5C0.75 8.83502 1.14588 10.1401 1.88758 11.2501C2.62928 12.3601 3.68349 13.2253 4.91689 13.7362C6.15029 14.2471 7.50749 14.3808 8.81686 14.1203C10.1262 13.8599 11.329 13.217 12.273 12.273C13.217 11.329 13.8599 10.1262 14.1203 8.81686C14.3808 7.50749 14.2471 6.15029 13.7362 4.91689C13.2253 3.68349 12.3601 2.62928 11.2501 1.88758C10.1401 1.14588 8.83502 0.75 7.5 0.75C5.61296 0.757099 3.80173 1.49342 2.445 2.805L0.75 4.5M0.75 4.5V0.75M0.75 4.5H4.5M7.5 3.75V7.5L10.5 9" stroke="#919191" stroke-width="1.5" stroke-linecap="round" stroke-linejoin="round"/>
</svg>
