<svg width="26" height="22" viewBox="0 0 26 22" fill="none" xmlns="http://www.w3.org/2000/svg">
<path d="M1 5.66667L4.62916 8.69093C4.86877 8.89067 5.17081 9 5.48273 9H20.5172C20.8292 9 21.1312 8.89067 21.3708 8.69093L25 5.66667M5.66667 13.6667H5.68M20.3333 13.6667H20.3467M7.88087 1H18.1192C19.0761 1 19.9597 1.51276 20.4344 2.34363L24.2973 9.1036C24.7577 9.90947 25 10.8215 25 11.7497V19.6667C25 20.4031 24.4031 21 23.6667 21H22.3333C21.5969 21 21 20.4031 21 19.6667V18.3333H5V19.6667C5 20.4031 4.40304 21 3.66667 21H2.33333C1.59696 21 1 20.4031 1 19.6667V11.7497C1 10.8215 1.24221 9.90947 1.70271 9.1036L5.56555 2.34363C6.04032 1.51276 6.92391 1 7.88087 1ZM6.33333 13.6667C6.33333 14.0348 6.03485 14.3333 5.66667 14.3333C5.29848 14.3333 5 14.0348 5 13.6667C5 13.2985 5.29848 13 5.66667 13C6.03485 13 6.33333 13.2985 6.33333 13.6667ZM21 13.6667C21 14.0348 20.7015 14.3333 20.3333 14.3333C19.9652 14.3333 19.6667 14.0348 19.6667 13.6667C19.6667 13.2985 19.9652 13 20.3333 13C20.7015 13 21 13.2985 21 13.6667Z" stroke="black" stroke-width="2" stroke-linecap="round" stroke-linejoin="round"/>
</svg>
