<svg width="29" height="29" viewBox="0 0 29 29" fill="none" xmlns="http://www.w3.org/2000/svg">
<path d="M1 1H3.66667L7.21333 17.56C7.34344 18.1665 7.68089 18.7086 8.16762 19.0931C8.65434 19.4777 9.25987 19.6805 9.88 19.6667H22.92C23.5269 19.6657 24.1153 19.4577 24.588 19.0771C25.0608 18.6965 25.3895 18.166 25.52 17.5733L27.72 7.66667H5.09333M10.2667 26.2667C10.2667 27.003 9.66971 27.6 8.93333 27.6C8.19695 27.6 7.6 27.003 7.6 26.2667C7.6 25.5303 8.19695 24.9333 8.93333 24.9333C9.66971 24.9333 10.2667 25.5303 10.2667 26.2667ZM24.9333 26.2667C24.9333 27.003 24.3364 27.6 23.6 27.6C22.8636 27.6 22.2667 27.003 22.2667 26.2667C22.2667 25.5303 22.8636 24.9333 23.6 24.9333C24.3364 24.9333 24.9333 25.5303 24.9333 26.2667Z" stroke="black" stroke-width="2" stroke-linecap="round" stroke-linejoin="round"/>
</svg>
